<?xml version="1.0" encoding="UTF-8" standalone="no"?>
<!-- Created with Inkscape (http://www.inkscape.org/) -->

<svg
   xmlns:dc="http://purl.org/dc/elements/1.1/"
   xmlns:cc="http://creativecommons.org/ns#"
   xmlns:rdf="http://www.w3.org/1999/02/22-rdf-syntax-ns#"
   xmlns:svg="http://www.w3.org/2000/svg"
   xmlns="http://www.w3.org/2000/svg"
   xmlns:xlink="http://www.w3.org/1999/xlink"
   xmlns:sodipodi="http://sodipodi.sourceforge.net/DTD/sodipodi-0.dtd"
   xmlns:inkscape="http://www.inkscape.org/namespaces/inkscape"
   id="svg2443"
   sodipodi:version="0.32"
   inkscape:version="0.48.3.1 r9886"
   width="85.038696"
   height="85.037346"
   xml:space="preserve"
   sodipodi:docname="cnrs-bar.svg"
   version="1.0"
   inkscape:output_extension="org.inkscape.output.svg.inkscape"><metadata
     id="metadata2448"><rdf:RDF><cc:Work
         rdf:about=""><dc:format>image/svg+xml</dc:format><dc:type
           rdf:resource="http://purl.org/dc/dcmitype/StillImage" /><dc:title /></cc:Work></rdf:RDF></metadata><defs
     id="defs2446"><inkscape:perspective
       sodipodi:type="inkscape:persp3d"
       inkscape:vp_x="0 : 526.18109 : 1"
       inkscape:vp_y="0 : 1000 : 0"
       inkscape:vp_z="744.09448 : 526.18109 : 1"
       inkscape:persp3d-origin="372.04724 : 350.78739 : 1"
       id="perspective2450" /><clipPath
       clipPathUnits="userSpaceOnUse"
       id="clipPath2458"><path
         d="m 0,0.89 595,0 0,841 -595,0 0,-841 z"
         id="path2460"
         inkscape:connector-curvature="0" /></clipPath><clipPath
       clipPathUnits="userSpaceOnUse"
       id="clipPath2630"><path
         d="m 113.386,491.4611 68.031,0 0,68.031 -68.031,0 0,-68.031 z"
         id="path2632"
         inkscape:connector-curvature="0" /></clipPath><radialGradient
       fx="0"
       fy="0"
       cx="0"
       cy="0"
       r="1"
       gradientUnits="userSpaceOnUse"
       gradientTransform="matrix(42.9428,0,0,-42.9428,155.14,533.4193)"
       spreadMethod="pad"
       id="radialGradient2644"><stop
         style="stop-opacity:1;stop-color:#486492"
         offset="0"
         id="stop2646" /><stop
         style="stop-opacity:1;stop-color:#132746"
         offset="1"
         id="stop2648" /></radialGradient><clipPath
       clipPathUnits="userSpaceOnUse"
       id="clipPath2708"><path
         d="m 129.923,260.574 28.346,0 0,28.346 -28.346,0 0,-28.346 z"
         id="path2710"
         inkscape:connector-curvature="0" /></clipPath><radialGradient
       fx="0"
       fy="0"
       cx="0"
       cy="0"
       r="1"
       gradientUnits="userSpaceOnUse"
       gradientTransform="matrix(17.89641,0,0,-17.89658,147.324,278.059)"
       spreadMethod="pad"
       id="radialGradient2722"><stop
         style="stop-opacity:1;stop-color:#486492"
         offset="0"
         id="stop2724" /><stop
         style="stop-opacity:1;stop-color:#132746"
         offset="1"
         id="stop2726" /></radialGradient><clipPath
       clipPathUnits="userSpaceOnUse"
       id="clipPath2758"><path
         d="m 113.386,408.189 68.031,0 0,68.032 -68.031,0 0,-68.032 z"
         id="path2760"
         inkscape:connector-curvature="0" /></clipPath><radialGradient
       fx="0"
       fy="0"
       cx="0"
       cy="0"
       r="1"
       gradientUnits="userSpaceOnUse"
       gradientTransform="matrix(42.9428,0,0,-42.9428,155.1404,450.1476)"
       spreadMethod="pad"
       id="radialGradient2772"><stop
         style="stop-opacity:1;stop-color:#486492"
         offset="0"
         id="stop2774" /><stop
         style="stop-opacity:1;stop-color:#132746"
         offset="1"
         id="stop2776" /></radialGradient><clipPath
       clipPathUnits="userSpaceOnUse"
       id="clipPath2872"><path
         d="m 132.885,229.393 22.677,0 0,22.677 -22.677,0 0,-22.677 z"
         id="path2874"
         inkscape:connector-curvature="0" /></clipPath><clipPath
       clipPathUnits="userSpaceOnUse"
       id="clipPath2910"><path
         d="m 119.881,342.992 51.023,0 0,51.024 -51.023,0 0,-51.024 z"
         id="path2912"
         inkscape:connector-curvature="0" /></clipPath><radialGradient
       fx="0"
       fy="0"
       cx="0"
       cy="0"
       r="1"
       gradientUnits="userSpaceOnUse"
       gradientTransform="matrix(32.2071,0,0,-32.20741,151.1965,374.4604)"
       spreadMethod="pad"
       id="radialGradient2924"><stop
         style="stop-opacity:1;stop-color:#486492"
         offset="0"
         id="stop2926" /><stop
         style="stop-opacity:1;stop-color:#132746"
         offset="1"
         id="stop2928" /></radialGradient><clipPath
       clipPathUnits="userSpaceOnUse"
       id="clipPath2958"><path
         d="m 100.898,202.5051 90.44,0 0,8.5 -90.44,0 0,-8.5 z"
         id="path2960"
         inkscape:connector-curvature="0" /></clipPath><clipPath
       clipPathUnits="userSpaceOnUse"
       id="clipPath2966"><path
         d="m 100.898,201.084 87.7437,0 0,9.9209 -87.7437,0 0,-9.9209 z"
         id="path2968"
         inkscape:connector-curvature="0" /></clipPath><radialGradient
       inkscape:collect="always"
       xlink:href="#radialGradient2644"
       id="radialGradient3129"
       gradientUnits="userSpaceOnUse"
       gradientTransform="matrix(42.9428,0,0,-42.9428,155.14,533.4193)"
       spreadMethod="pad"
       cx="0"
       cy="0"
       fx="0"
       fy="0"
       r="1" /><radialGradient
       inkscape:collect="always"
       xlink:href="#radialGradient2644"
       id="radialGradient3162"
       gradientUnits="userSpaceOnUse"
       gradientTransform="matrix(42.9428,0,0,-42.9428,155.14,533.4193)"
       spreadMethod="pad"
       cx="0"
       cy="0"
       fx="0"
       fy="0"
       r="1" /><radialGradient
       inkscape:collect="always"
       xlink:href="#radialGradient2644"
       id="radialGradient3118"
       gradientUnits="userSpaceOnUse"
       gradientTransform="matrix(42.9428,0,0,-42.9428,155.14,533.4193)"
       spreadMethod="pad"
       cx="0"
       cy="0"
       fx="0"
       fy="0"
       r="1" /><radialGradient
       inkscape:collect="always"
       xlink:href="#radialGradient2644"
       id="radialGradient3123"
       gradientUnits="userSpaceOnUse"
       gradientTransform="matrix(42.9428,0,0,-42.9428,155.14,533.4193)"
       spreadMethod="pad"
       cx="0"
       cy="0"
       fx="0"
       fy="0"
       r="1" /><radialGradient
       inkscape:collect="always"
       xlink:href="#radialGradient2644"
       id="radialGradient3127"
       gradientUnits="userSpaceOnUse"
       gradientTransform="matrix(42.9428,0,0,-42.9428,155.14,533.4193)"
       spreadMethod="pad"
       cx="0"
       cy="0"
       fx="0"
       fy="0"
       r="1" /><radialGradient
       inkscape:collect="always"
       xlink:href="#radialGradient2644"
       id="radialGradient3130"
       gradientUnits="userSpaceOnUse"
       gradientTransform="matrix(42.9428,0,0,-42.9428,155.54,532.21717)"
       spreadMethod="pad"
       cx="0"
       cy="0"
       fx="0"
       fy="0"
       r="1" /><radialGradient
       inkscape:collect="always"
       xlink:href="#radialGradient2644"
       id="radialGradient3212"
       gradientUnits="userSpaceOnUse"
       gradientTransform="matrix(42.9428,0,0,-42.9428,246.62434,530.12882)"
       spreadMethod="pad"
       cx="0"
       cy="0"
       fx="0"
       fy="0"
       r="1" /></defs><sodipodi:namedview
     inkscape:window-height="1024"
     inkscape:window-width="1920"
     inkscape:pageshadow="2"
     inkscape:pageopacity="0.0"
     guidetolerance="10.0"
     gridtolerance="10.0"
     objecttolerance="10.0"
     borderopacity="1.0"
     bordercolor="#666666"
     pagecolor="#ffffff"
     id="base"
     showgrid="false"
     inkscape:zoom="0.62250001"
     inkscape:cx="46.657828"
     inkscape:cy="-121.01425"
     inkscape:window-x="0"
     inkscape:window-y="27"
     inkscape:current-layer="g2452"
     inkscape:window-maximized="1"
     fit-margin-top="0"
     fit-margin-left="0"
     fit-margin-right="0"
     fit-margin-bottom="0"
     showguides="true"
     inkscape:guide-bbox="true" /><g
     id="g2452"
     inkscape:groupmode="layer"
     inkscape:label="T-CahierDesNormesA4-19"
     transform="matrix(1.25,0,0,-1.25,-142.23255,697.86246)"><path
       d="m 146.3594,558.23367 c -9.1453,0.5642 -17.3945,-3.0093 -24.5179,-10.6226 -9.2742,-9.9127 -9.0985,-16.8549 -6.568,-29.2877 1.659,-8.1471 6.4957,-16.0134 13.2699,-21.5818 7.8746,-6.4717 17.1278,-8.1377 26.7566,-4.8145 10.6116,3.6632 20.762,14.1493 24.686,25.5009 4.2732,12.3726 0.9896,23.5885 -9.0116,30.7697 -8.61,6.1837 -16.8908,9.5595 -24.615,10.036"
       style="fill:url(#radialGradient3130);stroke:none"
       id="path2650"
       inkscape:connector-curvature="0" /><path
       d="m 135.1106,525.97397 -2.3332,0 -0.003,-0.0661 c -0.0188,-0.4525 -0.2875,-4.4222 -3.8398,-4.4222 -3.1743,0 -4.7852,2.8447 -4.7883,8.4556 0.003,5.611 1.614,8.4559 4.7883,8.4559 3.6128,0 3.8327,-4.2418 3.8398,-4.4221 l 0.003,-0.0656 2.3332,0 c 0.2156,0 0.4246,0.0883 0.5746,0.2422 0.1434,0.1478 0.2176,0.3391 0.2078,0.5381 -0.0484,1.1008 -0.6125,6.5924 -6.9914,6.5924 -5.1543,0 -7.8789,-3.9172 -7.8789,-11.329 0,-7.4265 2.7246,-11.3525 7.8789,-11.3525 6.1387,0 6.9028,5.0156 6.9906,6.5525 0.0157,0.2124 -0.0578,0.4161 -0.2062,0.5725 -0.1492,0.158 -0.3593,0.2483 -0.5754,0.2483"
       style="fill:#ffffff;fill-opacity:1;fill-rule:nonzero;stroke:none"
       id="path2696"
       inkscape:connector-curvature="0" /><path
       d="m 168.966,531.28997 8e-4,-8e-4 -2.0096,0.8766 c -1.9328,0.8491 -2.618,1.6748 -2.618,3.1577 0,1.9329 1.4136,3.2322 3.5184,3.2322 1.244,0 2.2648,-0.2552 3.5108,-1.5243 l 0.0684,-0.0696 1.0724,0.9811 c 0.6212,0.5766 0.4412,1.0959 0.182,1.4296 -1.0464,1.2343 -2.7256,1.912 -4.7308,1.912 -3.868,0 -6.6752,-2.523 -6.6752,-5.9994 0,-3.4186 2.154,-4.8477 4.4812,-5.8822 l 2.05,-0.9155 c 2.0612,-0.9242 3.0428,-1.7123 3.0428,-3.6951 0,-2.7041 -2.444,-3.4251 -3.8876,-3.4251 -1.2424,0 -2.6252,0.2657 -4.3244,2.1907 l -0.0664,0.0758 -1.1172,-0.9814 c -0.5744,-0.5053 -0.5796,-0.9391 -0.0192,-1.6596 1.538,-1.977 3.7928,-2.392 5.4144,-2.392 3.5048,0 7.0544,2.1533 7.0544,6.268 0,3.5617 -1.9776,5.1429 -4.9472,6.4213"
       style="fill:#66cde2;fill-opacity:1;fill-rule:nonzero;stroke:none"
       id="path2698"
       inkscape:connector-curvature="0" /><path
       d="m 150.7512,534.79287 c 0,3.5016 -2.8375,6.4682 -6.3402,6.4682 -1.6476,0 -3.1476,-0.6281 -4.275,-1.6585 l 0,1.2038 -2.1094,0 c -0.6359,0 -0.8781,-0.4149 -0.8781,-0.8914 l 0,-20.433 c 0,-0.5748 0.3508,-0.8823 0.8684,-0.8823 l 2.1097,0 c 0,0 0,16.0684 0,16.0692 0,2.1107 1.7114,3.8225 3.8227,3.8225 2.1109,0 3.823,-1.7118 3.823,-3.8225 0,-8e-4 0,-16.0721 0,-16.0721 l 2.0961,0 c 0.5813,0 0.8828,0.3227 0.8828,0.8791 0,0 0,15.2969 0,15.317"
       style="fill:#66cde2;fill-opacity:1;fill-rule:nonzero;stroke:none"
       id="path2700"
       inkscape:connector-curvature="0" /><path
       d="m 161.6464,539.73357 c 0.1104,0.1366 0.1784,0.3083 0.1784,0.4968 0,0.3516 -0.2296,0.6469 -0.5444,0.7541 -0.6104,0.2043 -1.2604,0.3164 -1.9364,0.3164 -1.6476,0 -3.1476,-0.6281 -4.2752,-1.6582 l 0,1.2035 -2.1094,0 c -0.6355,0 -0.8785,-0.4148 -0.8785,-0.8916 l 0,-20.4326 c 0,-0.5752 0.352,-0.8826 0.8692,-0.8826 l 2.1095,0 c 0,0 0,16.0684 0,16.0691 0,2.1112 1.712,3.8229 3.8232,3.8229 0.5532,0 1.0776,-0.1202 1.552,-0.3315 l 1.2188,1.5293"
       style="fill:#ffffff;fill-opacity:1;fill-rule:nonzero;stroke:none"
       id="path2702"
       inkscape:connector-curvature="0" /><path
       style="fill:#ffffff;fill-opacity:1"
       d="M 37.5625 28.28125 C 37.43517 28.313638 37.297812 28.389691 37.1875 28.5 C 36.948437 28.738688 36.96875 28.899638 36.96875 53.125 C 36.96875 77.350363 36.948825 77.511325 37.1875 77.75 C 37.469038 78.031538 37.890312 78.052662 38.21875 77.8125 C 38.448063 77.644838 38.4675 77.2477 38.5 53.40625 C 38.51825 40.071463 38.503625 29.050288 38.46875 28.90625 C 38.354741 28.434941 37.94449 28.184086 37.5625 28.28125 z "
       transform="matrix(0.8,0,0,-0.8,113.78604,558.28997)"
       id="path3145" /></g></svg>