<?xml version="1.0" encoding="UTF-8" standalone="no"?>
<!-- Created with Inkscape (http://www.inkscape.org/) -->

<svg
   xmlns:dc="http://purl.org/dc/elements/1.1/"
   xmlns:cc="http://creativecommons.org/ns#"
   xmlns:rdf="http://www.w3.org/1999/02/22-rdf-syntax-ns#"
   xmlns:svg="http://www.w3.org/2000/svg"
   xmlns="http://www.w3.org/2000/svg"
   xmlns:xlink="http://www.w3.org/1999/xlink"
   xmlns:sodipodi="http://sodipodi.sourceforge.net/DTD/sodipodi-0.dtd"
   xmlns:inkscape="http://www.inkscape.org/namespaces/inkscape"
   width="531.49628"
   height="155.16125"
   id="svg14847"
   version="1.1"
   inkscape:version="0.48.3.1 r9886"
   sodipodi:docname="inria.svg">
  <defs
     id="defs14849">
    <radialGradient
       inkscape:collect="always"
       xlink:href="#radialGradient8951"
       id="radialGradient14568"
       gradientUnits="userSpaceOnUse"
       gradientTransform="matrix(185.08492,0,0,-185.08492,73.441649,-41.663096)"
       spreadMethod="pad"
       cx="0"
       cy="0"
       fx="0"
       fy="0"
       r="1" />
    <radialGradient
       id="radialGradient8951"
       spreadMethod="pad"
       gradientTransform="matrix(185.08492,0,0,-185.08492,255.93359,458.86035)"
       gradientUnits="userSpaceOnUse"
       r="1"
       cy="0"
       cx="0"
       fy="0"
       fx="0">
      <stop
         id="stop8953"
         offset="0"
         style="stop-opacity:1;stop-color:#fbc81e" />
      <stop
         id="stop8955"
         offset="1"
         style="stop-opacity:1;stop-color:#ed192e" />
    </radialGradient>
    <radialGradient
       inkscape:collect="always"
       xlink:href="#radialGradient8951"
       id="radialGradient15018"
       gradientUnits="userSpaceOnUse"
       gradientTransform="matrix(231.35615,0,0,231.35615,268.95511,814.69906)"
       spreadMethod="pad"
       cx="0"
       cy="0"
       fx="0"
       fy="0"
       r="1" />
  </defs>
  <sodipodi:namedview
     id="base"
     pagecolor="#ffffff"
     bordercolor="#666666"
     borderopacity="1.0"
     inkscape:pageopacity="0.0"
     inkscape:pageshadow="2"
     inkscape:zoom="0.98994949"
     inkscape:cx="153.23162"
     inkscape:cy="91.796745"
     inkscape:document-units="px"
     inkscape:current-layer="layer1"
     showgrid="false"
     fit-margin-top="0"
     fit-margin-left="0"
     fit-margin-right="0"
     fit-margin-bottom="0"
     inkscape:window-width="1920"
     inkscape:window-height="1024"
     inkscape:window-x="0"
     inkscape:window-y="27"
     inkscape:window-maximized="1" />
  <metadata
     id="metadata14852">
    <rdf:RDF>
      <cc:Work
         rdf:about="">
        <dc:format>image/svg+xml</dc:format>
        <dc:type
           rdf:resource="http://purl.org/dc/dcmitype/StillImage" />
        <dc:title></dc:title>
      </cc:Work>
    </rdf:RDF>
  </metadata>
  <g
     inkscape:label="Calque 1"
     inkscape:groupmode="layer"
     id="layer1"
     transform="translate(-54.21509,-526.3345)">
    <path
       inkscape:connector-curvature="0"
       d="m 158.61687,531.17325 c -5.98125,5.105 -12.12875,10.755 -17.75875,17.34125 l 0,0 c -3.2875,3.85 12.50375,2.24875 19.70625,-2.085 l 0,0 c 7.265,-4.375 14.74875,-10.24125 21.46625,-17.05625 l 0,0 c 2.11,-2.14125 -0.3525,-3.03875 -4.415,-3.03875 l 0,0 c -6.05625,0 -15.6725,1.995 -18.99875,4.83875 m -35.38,35.12875 c -29.382496,29.5625 -58.956246,62.56125 -67.297496,88.2375 l 0,0 c -4.606249,14.19625 -0.3575,26.95625 17.285,26.95625 l 0,0 c 14.485,0 30.529996,-7.17375 44.152496,-15.695 l 0,0 c -3.35625,4.57 -6.41125,8.72 -8.87,12.0575 l 0,0 c -3.84375,5.2075 15.64875,3.30625 19.75875,-1.9475 l 0,0 c 15.42,-19.71625 52.4625,-43.9725 62.775,-43.9725 l 0,0 c 9.38625,0 -22.94375,24.225 -22.64625,39.06 l 0,0 c 0.3725,19.47 45.4975,7.54875 60.81375,-12.50125 l 0,0 c 2.39375,-3.12875 0.52,-11.7425 -1.64125,-9.63875 l 0,0 c -7.00875,6.83 -22.3375,18.29125 -35.7475,18.29125 l 0,0 c -9.91125,0 9.835,-17.77125 19.615,-32.0925 l 0,0 c 9.3375,-13.68 1.69875,-17.7725 -6.005,-17.7725 l 0,0 c -19.095,0 -37.73125,13.39875 -50.36875,22.82625 l 0,0 c 3.8175,-5.11375 9.75875,-11.67125 16.10375,-20.04 l 0,0 c 3.515,-4.6425 -17.535,-2.98 -22.92,4.1075 l 0,0 c -1.715,2.245 -3.6075,4.76125 -5.6225,7.45125 l 0,0 C 124.35062,653.58325 96.770624,668.402 83.228124,668.402 l 0,0 c -7.5475,0 -10.2875,-5.20375 -5.59625,-15.02375 l 0,0 c 11.3225,-23.68 50.334996,-68.695 71.538746,-88.4 l 0,0 c 4.08125,-3.8225 1.23125,-5.36375 -3.91125,-5.36375 l 0,0 c -6.98625,0 -18.2025,2.845 -22.0225,6.6875 m 249.76875,19.00875 c -5.98375,5.1125 -15.925,14.28375 -21.5525,20.87875 l 0,0 c -3.28625,3.84875 10.11875,3.45875 17.32125,-0.88 l 0,0 c 7.27125,-4.3675 20.9275,-14.9825 27.6475,-21.79625 l 0,0 c 2.11125,-2.14 -0.35125,-3.0375 -4.4125,-3.0375 l 0,0 c -6.0575,0 -15.67625,1.995 -19.00375,4.835 m -136.55875,53.2075 c -3.02625,3.54625 -1.4625,12.4375 1.6625,9.34875 l 0,0 c 19.5625,-19.35125 19.11875,-17.77 45.01375,-17.77 l 0,0 c -4.17,4.41625 -11.585,8.83375 -24.17375,24.80875 l 0,0 c -11.215,14.25 -3.88,25.7675 12.0525,25.7675 l 0,0 c 8.8075,0 21.9525,-4.1275 33.9725,-12.6025 l 0,0 c -1.43875,7.42375 1.53875,12.74125 12.885,12.74125 l 0,0 c 13.13875,0 28.14625,-7.81875 40.575,-16.51125 l 0,0 c -1.565,9.435 3.30126,16.51125 17.2,16.51125 l 0,0 c 10.70125,0 23.16,-4.20125 36.02625,-15.3475 l 0,0 c -0.0712,8.51625 5.9425,15.27625 17.145,15.27625 l 0,0 c 27.2775,0 121.5,-34.21875 154.285,-14.45375 l 0,0 c 4.09875,2.4725 3.9175,-10.3725 -4.35499,-15.5225 l 0,0 c -29.59751,-18.43 -110.55751,13.69625 -141.26501,17.3675 l 0,0 c -5.7525,0.68875 -7.84999,-0.77375 -6.49375,-4.67625 l 0,0 c 2.60625,-7.525 12.87375,-21.3675 14.93375,-26.1425 l 0,0 c 1.95375,-4.545 1.68,-20.2025 -21.47249,-20.2025 l 0,0 c -18.91751,0 -36.27251,8.7875 -48.46626,19.83875 l 0,0 c -11.62624,9.9225 -34.15,29.535 -48.01,29.535 l 0,0 c -14.35,0 27.67875,-43.36625 30.00251,-45.54625 l 0,0 c 6.245,-5.87375 -13.45001,-4.41875 -21.73126,1.88875 l 0,0 c -3.30375,2.51125 -16.51625,16.6425 -24.77625,30.3225 l 0,0 c -23.905,16.52875 -47.69625,20.36625 -36.37875,6.6225 l 0,0 c 6.02625,-7.30875 16.2075,-17.115 23.21375,-24.89125 l 0,0 c 9.775,-10.84125 8,-17.97 -13.58625,-17.97 l 0,0 c -28.8975,0 -31.95625,2.51375 -48.25875,21.6075 m 187.78626,-10.8625 c 13.96999,0 -24.01375,40.87875 -41.26001,40.87875 l 0,0 c -17.89,0 17.9225,-40.87875 41.26001,-40.87875"
       style="fill:url(#radialGradient15018);stroke:none"
       id="path8957" />
    <path
       id="path8969"
       style="fill:#393536;fill-opacity:1;fill-rule:nonzero;stroke:none"
       d="m 237.862,585.061 -0.32875,1.9475 c -0.0413,0.23 -0.26625,0.41875 -0.4925,0.41875 l -2.66875,0 c -0.205,0 -0.3275,-0.14625 -0.3275,-0.335 l 0,-0.0838 0.3275,-1.9475 c 0.0412,-0.23 0.2675,-0.41875 0.49375,-0.41875 l 2.6675,0 c 0.205,0 0.32875,0.1475 0.32875,0.335 l 0,0.0838 z m -0.78,4.145 -1.92875,11.16125 c -0.0413,0.23 -0.2675,0.41875 -0.49375,0.41875 l -2.50375,0 c -0.205,0 -0.32875,-0.14625 -0.32875,-0.335 l 0,-0.0838 1.93,-11.16125 c 0.0412,-0.23 0.24625,-0.4175 0.4725,-0.4175 l 2.50375,0 c 0.205,0 0.34875,0.14625 0.34875,0.35625 l 0,0.0612 z"
       inkscape:connector-curvature="0" />
    <path
       id="path8973"
       style="fill:#393536;fill-opacity:1;fill-rule:nonzero;stroke:none"
       d="m 250.01162,593.374 -1.19125,6.9725 c -0.04,0.23 -0.2875,0.44 -0.5125,0.44 l -2.48375,0 c -0.205,0 -0.3275,-0.16875 -0.3275,-0.35625 l 0,-0.0838 1.19,-6.9725 c 0.0613,-0.35625 0.1025,-0.67 0.1025,-0.92125 0,-0.775 -0.4925,-1.02625 -1.10875,-1.02625 -0.78,0 -1.765,0.3975 -2.21625,0.67 l -1.41625,8.25 c -0.0412,0.23 -0.26625,0.44 -0.4925,0.44 l -2.48375,0 c -0.20625,0 -0.34875,-0.16875 -0.34875,-0.3775 l 0,-0.0625 1.92875,-11.14 c 0.0412,-0.23 0.24625,-0.4175 0.4725,-0.4175 l 2.2375,0 c 0.205,0 0.34875,0.14625 0.34875,0.355 l 0,0.0625 -0.0825,0.5025 c 0.92375,-0.71125 2.11375,-1.08875 3.2025,-1.08875 1.765,0 3.305,1.005 3.305,3.47625 0,0.3975 -0.0425,0.81625 -0.12375,1.2775"
       inkscape:connector-curvature="0" />
    <path
       id="path8977"
       style="fill:#393536;fill-opacity:1;fill-rule:nonzero;stroke:none"
       d="m 261.21462,584.99875 -0.26625,1.54875 c -0.0412,0.25125 -0.12375,0.39875 -0.4525,0.39875 l -1.06625,0 c -0.6375,0 -0.80125,0.1675 -0.945,1.08875 l -0.1225,0.75375 1.74375,0 c 0.2675,0 0.37,0.14625 0.37,0.31375 0,0.0412 -0.02,0.0838 -0.02,0.125 l -0.2875,1.67625 c -0.0625,0.33375 -0.165,0.4175 -0.4925,0.4175 l -1.745,0 -1.6625,9.485 c -0.55375,3.20375 -2.09375,3.60125 -4.29,3.60125 -0.5125,0 -0.985,-0.10375 -1.43625,-0.1875 -0.16375,-0.0425 -0.32875,-0.12625 -0.32875,-0.315 l 0,-0.0412 0.2675,-1.59125 c 0.04,-0.25125 0.225,-0.37625 0.41,-0.37625 l 0.82125,0 c 0.9025,0 1.06625,-0.105 1.23125,-1.09 l 1.6425,-9.485 -1.56,-0.25125 c -0.185,-0.02 -0.35,-0.14625 -0.35,-0.3975 0,-0.0412 0.0213,-0.105 0.0213,-0.14625 l 0.22625,-1.29875 c 0.0613,-0.33375 0.18375,-0.43875 0.4925,-0.43875 l 1.6,0 0.12375,-0.75375 c 0.5125,-3.14125 2.01125,-3.60125 4.29,-3.60125 0.5125,0 1.005,0.10375 1.45625,0.1875 0.165,0.0425 0.32875,0.14625 0.32875,0.31375 l 0,0.0638 z"
       inkscape:connector-curvature="0" />
    <path
       id="path8981"
       style="fill:#393536;fill-opacity:1;fill-rule:nonzero;stroke:none"
       d="m 267.18575,591.51 c -1.19,0 -1.95,0.71125 -2.2775,2.555 l -0.2675,1.465 c -0.0613,0.3775 -0.1025,0.7125 -0.1025,1.00625 0,1.08875 0.4925,1.56875 1.52,1.56875 1.3325,0 1.94875,-0.87875 2.25625,-2.575 l 0.2675,-1.465 c 0.0613,-0.35625 0.1025,-0.69125 0.1025,-0.96375 0,-1.08875 -0.4925,-1.59125 -1.49875,-1.59125 m 4.70125,2.555 -0.2675,1.465 c -0.6575,3.56 -2.4425,5.44375 -6.075,5.44375 -2.79125,0 -4.31125,-1.8 -4.31125,-4.27125 0,-0.37625 0.0213,-0.775 0.1025,-1.1725 l 0.2675,-1.465 c 0.6975,-3.79 2.6675,-5.445 6.07625,-5.445 2.77,0 4.33,1.67625 4.33,4.23 0,0.3975 -0.0825,0.96375 -0.1225,1.215"
       inkscape:connector-curvature="0" />
    <path
       id="path8985"
       style="fill:#393536;fill-opacity:1;fill-rule:nonzero;stroke:none"
       d="m 282.3725,589.03925 -0.34875,1.99 c -0.0425,0.1875 -0.185,0.3975 -0.37,0.3975 l -0.16375,0 c -1.00625,0 -1.95,0.31375 -2.77125,0.7325 l -1.41625,8.18625 c -0.0412,0.23 -0.2675,0.44 -0.4925,0.44 l -2.48375,0 c -0.205,0 -0.34875,-0.1675 -0.34875,-0.35625 l 0,-0.0838 1.92875,-11.13875 c 0.0412,-0.23 0.24625,-0.41875 0.4725,-0.41875 l 2.4425,0 c 0.205,0 0.34875,0.1475 0.34875,0.335 l 0,0.0838 -0.0813,0.41875 c 1.00625,-0.85875 1.8475,-1.005 2.935,-1.005 0.205,0 0.34875,0.14625 0.34875,0.35625 l 0,0.0625 z"
       inkscape:connector-curvature="0" />
    <path
       id="path8989"
       style="fill:#393536;fill-opacity:1;fill-rule:nonzero;stroke:none"
       d="m 299.85787,593.20613 -1.23125,7.14 c -0.0412,0.23 -0.28625,0.44 -0.51375,0.44 l -2.4825,0 c -0.205,0 -0.32875,-0.1675 -0.32875,-0.35625 l 0,-0.0838 1.2325,-7.14 c 0.0613,-0.35625 0.1025,-0.65 0.1025,-0.9 0,-0.58625 -0.24625,-0.8375 -1.06875,-0.8375 -0.3275,0 -1.025,0.0625 -1.6625,0.335 0,0.46125 -0.0613,0.94125 -0.1425,1.4025 l -1.23125,7.14 c -0.0425,0.23 -0.2675,0.44 -0.49375,0.44 l -2.4825,0 c -0.205,0 -0.34875,-0.1675 -0.34875,-0.3775 l 0,-0.0625 1.23125,-7.14 c 0.0613,-0.37625 0.1225,-0.71125 0.1225,-0.985 0,-0.48 -0.16375,-0.7525 -0.82125,-0.7525 -0.5125,0 -1.21,0.2925 -1.8675,0.6275 l -1.41625,8.25 c -0.0412,0.23 -0.2675,0.44 -0.4925,0.44 l -2.48375,0 c -0.205,0 -0.34875,-0.1675 -0.34875,-0.3775 l 0,-0.0625 1.93,-11.14 c 0.04,-0.23 0.245,-0.4175 0.47125,-0.4175 l 2.2375,0 c 0.205,0 0.34875,0.14625 0.34875,0.355 l 0,0.0625 -0.0825,0.4825 c 0.82125,-0.545 1.76625,-1.0675 2.89375,-1.0675 1.1925,0 1.93,0.37625 2.3825,0.94125 1.21,-0.71125 2.2375,-0.94125 3.6325,-0.94125 2.2775,0 3.03875,1.52875 3.03875,3.30875 0,0.4175 -0.0437,0.8575 -0.125,1.27625"
       inkscape:connector-curvature="0" />
    <path
       id="path8993"
       style="fill:#393536;fill-opacity:1;fill-rule:nonzero;stroke:none"
       d="m 308.35275,591.40563 c -1.4575,0 -2.0525,0.88 -2.34,2.575 l -0.36875,2.19875 c -0.0412,0.23 -0.0625,0.46125 -0.0625,0.69125 0,0.69 0.24625,1.2775 1.17125,1.2775 0.69625,0 1.4975,-0.33625 2.175,-0.7325 l 1.00625,-5.885 c -0.37,-0.0625 -1.00625,-0.125 -1.58125,-0.125 m 5.21375,-1.63375 -1.80625,10.595 c -0.0412,0.23 -0.2475,0.41875 -0.47125,0.41875 l -2.09375,0 c -0.20625,0 -0.34875,-0.1675 -0.34875,-0.35625 l 0,-0.0625 0.0813,-0.60625 c -1.10875,0.87875 -2.09375,1.21375 -3.18125,1.21375 -2.46375,0 -3.44875,-1.92625 -3.44875,-4.02 0,-0.3975 0.04,-0.775 0.1025,-1.17375 0,0 0.26625,-1.56875 0.32875,-1.9675 0.61625,-3.6425 2.83375,-5.1925 6.055,-5.1925 1.39625,0 2.915,0.20875 4.24875,0.52375 0.34875,0.0838 0.555,0.14625 0.555,0.46125 0,0.0412 0,0.10375 -0.0213,0.16625"
       inkscape:connector-curvature="0" />
    <path
       id="path8997"
       style="fill:#393536;fill-opacity:1;fill-rule:nonzero;stroke:none"
       d="m 323.26913,589.2065 -0.3075,1.69625 c -0.0412,0.23125 -0.2475,0.41875 -0.47375,0.41875 l -1.6825,0 -1.0675,6.09375 c -0.0412,0.25125 -0.0613,0.43875 -0.0613,0.58625 0,0.31375 0.14376,0.3975 0.57375,0.3975 l 1.00625,0 c 0.20501,0 0.37,0.0838 0.37,0.2925 l 0,0.0638 -0.28625,1.6325 c -0.0425,0.20875 -0.18624,0.3775 -0.4525,0.41875 -0.63749,0.105 -1.06749,0.1675 -1.6625,0.1675 -1.86749,0 -2.91499,-0.69 -2.91499,-2.5125 0,-0.31375 0.0412,-0.67 0.10249,-1.0675 l 1.0475,-6.0725 -1.60125,-0.27125 c -0.20499,-0.0425 -0.34875,-0.16875 -0.34875,-0.3775 l 0,-0.0625 0.22501,-1.3825 c 0.0412,-0.23 0.28875,-0.43875 0.51375,-0.43875 l 1.6425,0 0.28625,-1.7175 c 0.0412,-0.23125 0.2475,-0.3775 0.49375,-0.41875 l 2.58499,-0.44 0.0625,0 c 0.18376,0 0.3075,0.10375 0.3075,0.2925 l 0,0.0637 -0.39,2.22 1.68376,0 c 0.205,0 0.34875,0.14625 0.34875,0.355 l 0,0.0625 z"
       inkscape:connector-curvature="0" />
    <path
       id="path9001"
       style="fill:#393536;fill-opacity:1;fill-rule:nonzero;stroke:none"
       d="m 330.36875,585.061 -0.33,1.9475 c -0.0412,0.23 -0.26625,0.41875 -0.49,0.41875 l -2.66875,0 c -0.205,0 -0.33,-0.14625 -0.33,-0.335 l 0,-0.0838 0.33,-1.9475 c 0.0387,-0.23 0.26625,-0.41875 0.49125,-0.41875 l 2.6675,0 c 0.205,0 0.33,0.1475 0.33,0.335 l 0,0.0838 z m -0.78125,4.145 -1.92875,11.16125 c -0.0412,0.23 -0.26625,0.41875 -0.49375,0.41875 l -2.50125,0 c -0.20625,0 -0.33,-0.14625 -0.33,-0.335 l 0,-0.0838 1.92875,-11.16125 c 0.0412,-0.23 0.24625,-0.4175 0.47375,-0.4175 l 2.5025,0 c 0.205,0 0.34875,0.14625 0.34875,0.35625 l 0,0.0612 z"
       inkscape:connector-curvature="0" />
    <path
       id="path9005"
       style="fill:#393536;fill-opacity:1;fill-rule:nonzero;stroke:none"
       d="m 340.752,589.4165 -0.3275,1.86375 c -0.0413,0.20875 -0.24625,0.355 -0.45125,0.355 l -0.0412,0 c -0.74,-0.0838 -1.31375,-0.14625 -2.48375,-0.14625 -1.005,0 -1.745,0.48125 -2.09375,2.42875 l -0.3075,1.75875 c -0.0613,0.39875 -0.1025,0.73375 -0.1025,1.00625 0,1.13 0.5125,1.4225 1.37625,1.4225 1.17,0 1.74375,-0.0625 2.525,-0.14625 l 0.0387,0 c 0.185,0 0.33,0.105 0.33,0.2925 l 0,0.0638 -0.33,1.86375 c -0.0613,0.31375 -0.18375,0.3975 -0.5125,0.48125 -0.59625,0.14625 -1.4975,0.31375 -2.73,0.31375 -2.4,0 -4.0425,-1.465 -4.0425,-4.06125 0,-0.3975 0.0413,-0.79625 0.12125,-1.23625 l 0.31,-1.75875 c 0.67625,-3.915 2.7075,-5.2975 5.68375,-5.2975 1.23375,0 2.13375,0.16875 2.68875,0.315 0.24625,0.0625 0.37125,0.14625 0.37125,0.335 0,0.0412 -0.0225,0.10375 -0.0225,0.14625"
       inkscape:connector-curvature="0" />
    <path
       id="path9009"
       style="fill:#393536;fill-opacity:1;fill-rule:nonzero;stroke:none"
       d="M 351.7115,589.58375 351.424,591.28 c -0.04,0.23 -0.18375,0.3975 -0.41125,0.3975 l -0.06,0 c -0.57375,-0.0838 -2.32,-0.27125 -3.3675,-0.27125 l -0.08,0 c -0.535,0 -1.13125,0.02 -1.13125,0.7325 0,0.25125 0.16375,0.44 0.49375,0.64875 l 2.2775,1.48625 c 1.2725,0.8375 1.62125,1.78 1.62125,2.59625 0,3.03625 -2.42125,4.10375 -5.06875,4.10375 -1.13,0 -2.64875,-0.16625 -3.65375,-0.46 -0.205,-0.0625 -0.3075,-0.18875 -0.3075,-0.3775 l 0,-0.105 0.3075,-1.695 c 0.0412,-0.25125 0.22625,-0.3975 0.47375,-0.3975 l 0.06,0 c 1.08875,0.14625 2.54625,0.2925 3.4475,0.2925 0.69875,0 1.355,-0.0625 1.355,-0.94125 0,-0.27375 -0.16375,-0.545 -0.615,-0.83875 l -2.4025,-1.57 c -0.9225,-0.6075 -1.3325,-1.57125 -1.3325,-2.49125 0,-2.93125 2.33875,-3.77 4.80125,-3.77 1.43875,0 2.56625,0.21 3.5725,0.4825 0.205,0.0625 0.3075,0.18875 0.3075,0.3775 l 0,0.10375 z"
       inkscape:connector-curvature="0" />
    <path
       id="path9013"
       style="fill:#393536;fill-opacity:1;fill-rule:nonzero;stroke:none"
       d="m 412.24125,593.20613 -1.23,7.14 c -0.0425,0.23 -0.28875,0.44 -0.51375,0.44 l -2.4825,0 c -0.2075,0 -0.33,-0.1675 -0.33,-0.35625 l 0,-0.0838 1.23125,-7.14 c 0.0638,-0.35625 0.1025,-0.65 0.1025,-0.9 0,-0.58625 -0.24625,-0.8375 -1.0675,-0.8375 -0.32625,0 -1.025,0.0625 -1.6625,0.335 0,0.46125 -0.0612,0.94125 -0.14375,1.4025 l -1.23,7.14 c -0.0425,0.23 -0.26625,0.44 -0.49375,0.44 l -2.4825,0 c -0.205,0 -0.34875,-0.1675 -0.34875,-0.3775 l 0,-0.0625 1.23,-7.14 c 0.0638,-0.37625 0.12375,-0.71125 0.12375,-0.985 0,-0.48 -0.1625,-0.7525 -0.82,-0.7525 -0.515,0 -1.21125,0.2925 -1.8675,0.6275 l -1.41625,8.25 c -0.0412,0.23 -0.26875,0.44 -0.4925,0.44 l -2.48375,0 c -0.2075,0 -0.34875,-0.1675 -0.34875,-0.3775 l 0,-0.0625 1.92875,-11.14 c 0.0412,-0.23 0.24625,-0.4175 0.47125,-0.4175 l 2.23875,0 c 0.205,0 0.34625,0.14625 0.34625,0.355 l 0,0.0625 -0.08,0.4825 c 0.82,-0.545 1.765,-1.0675 2.8925,-1.0675 1.1925,0 1.93125,0.37625 2.38125,0.94125 1.21,-0.71125 2.23875,-0.94125 3.635,-0.94125 2.2775,0 3.0375,1.52875 3.0375,3.30875 0,0.4175 -0.0425,0.8575 -0.125,1.27625"
       inkscape:connector-curvature="0" />
    <path
       id="path9017"
       style="fill:#393536;fill-opacity:1;fill-rule:nonzero;stroke:none"
       d="m 420.73737,591.40563 c -1.4575,0 -2.05375,0.88 -2.34125,2.575 l -0.36875,2.19875 c -0.0412,0.23 -0.0612,0.46125 -0.0612,0.69125 0,0.69 0.24624,1.2775 1.16999,1.2775 0.6975,0 1.49876,-0.33625 2.17501,-0.7325 l 1.00625,-5.885 c -0.36875,-0.0625 -1.00625,-0.125 -1.58,-0.125 m 5.2125,-1.63375 -1.80625,10.595 c -0.04,0.23 -0.24751,0.41875 -0.47126,0.41875 l -2.09499,0 c -0.205,0 -0.34875,-0.1675 -0.34875,-0.35625 l 0,-0.0625 0.0825,-0.60625 c -1.10875,0.87875 -2.095,1.21375 -3.18125,1.21375 -2.46375,0 -3.4475,-1.92625 -3.4475,-4.02 0,-0.3975 0.0387,-0.775 0.1025,-1.17375 0,0 0.26625,-1.56875 0.3275,-1.9675 0.615,-3.6425 2.8325,-5.1925 6.05499,-5.1925 1.39625,0 2.91501,0.20875 4.25001,0.52375 0.34625,0.0838 0.555,0.14625 0.555,0.46125 0,0.0412 0,0.10375 -0.0225,0.16625"
       inkscape:connector-curvature="0" />
    <path
       id="path9021"
       style="fill:#393536;fill-opacity:1;fill-rule:nonzero;stroke:none"
       d="m 435.65188,589.2065 -0.3075,1.69625 c -0.0412,0.23125 -0.24626,0.41875 -0.47126,0.41875 l -1.685,0 -1.06625,6.09375 c -0.0412,0.25125 -0.0613,0.43875 -0.0613,0.58625 0,0.31375 0.14375,0.3975 0.57375,0.3975 l 1.00625,0 c 0.205,0 0.36875,0.0838 0.36875,0.2925 l 0,0.0638 -0.28625,1.6325 c -0.0412,0.20875 -0.185,0.3775 -0.45125,0.41875 -0.6375,0.105 -1.0675,0.1675 -1.6625,0.1675 -1.86875,0 -2.915,-0.69 -2.915,-2.5125 0,-0.31375 0.0412,-0.67 0.1025,-1.0675 l 1.0475,-6.0725 -1.6025,-0.27125 c -0.205,-0.0425 -0.34875,-0.16875 -0.34875,-0.3775 l 0,-0.0625 0.2275,-1.3825 c 0.0413,-0.23 0.285,-0.43875 0.5125,-0.43875 l 1.64,0 0.28875,-1.7175 c 0.0412,-0.23125 0.24625,-0.3775 0.4925,-0.41875 l 2.58625,-0.44 0.06,0 c 0.18625,0 0.30875,0.10375 0.30875,0.2925 l 0,0.0637 -0.38875,2.22 1.6825,0 c 0.205,0 0.34875,0.14625 0.34875,0.355 l 0,0.0625 z"
       inkscape:connector-curvature="0" />
    <path
       id="path9025"
       style="fill:#393536;fill-opacity:1;fill-rule:nonzero;stroke:none"
       d="m 447.98588,593.03888 -1.25251,7.3275 c -0.0412,0.23 -0.26625,0.42 -0.49125,0.42 l -2.50374,0 c -0.20626,0 -0.33001,-0.14625 -0.33001,-0.335 l 0,-0.085 1.25251,-7.30625 c 0.0412,-0.23 0.0612,-0.41875 0.0612,-0.58625 0,-0.8175 -0.45249,-1.08875 -1.5575,-1.08875 -0.61874,0 -1.23374,0.0625 -1.685,0.1675 l -1.51875,8.79375 c -0.0412,0.23 -0.26625,0.44 -0.4925,0.44 l -2.48375,0 c -0.205,0 -0.34875,-0.16875 -0.34875,-0.3775 l 0,-0.0625 2.62625,-15.20125 c 0.0425,-0.23125 0.2475,-0.41875 0.47126,-0.41875 l 2.50499,0 c 0.205,0 0.35,0.14625 0.35,0.355 l 0,0.0638 -0.6575,3.74875 c 0.57375,-0.12625 1.39625,-0.27375 2.1975,-0.27375 2.66875,0 3.94,1.46625 3.94,3.4975 0,0.29375 -0.0213,0.6075 -0.0825,0.92125"
       inkscape:connector-curvature="0" />
    <path
       id="path9029"
       style="fill:#393536;fill-opacity:1;fill-rule:nonzero;stroke:none"
       d="m 456.6455,591.34275 c -1.39375,0 -2.05375,0.96375 -2.36125,2.4075 l 3.86,0 c 0.0612,-0.335 0.1025,-0.64875 0.1025,-0.92125 0,-0.9625 -0.45125,-1.48625 -1.60125,-1.48625 m 4.5975,2.785 -0.205,1.21375 c -0.0613,0.315 -0.2475,0.50375 -0.5125,0.50375 l -6.59,0 c -0.0412,0.31375 -0.08,0.60625 -0.08,0.8575 0,1.08875 0.5125,1.46625 1.82625,1.46625 1.29375,0 3.13875,-0.105 3.98125,-0.18875 l 0.0612,0 c 0.185,0 0.33,0.0838 0.33,0.27125 l 0,0.0638 -0.28875,1.59125 c -0.0612,0.335 -0.14375,0.48125 -0.5125,0.565 -1.375,0.335 -2.525,0.5025 -4.31125,0.5025 -2.2175,0 -4.31,-1.2975 -4.31,-4.20875 0,-0.355 0.0425,-0.75375 0.1025,-1.1725 l 0.2475,-1.465 c 0.615,-3.64375 2.77125,-5.5075 6.1375,-5.5075 2.76875,0 4.22625,1.92625 4.22625,4.37625 0,0.35625 -0.0412,0.75375 -0.1025,1.13125"
       inkscape:connector-curvature="0" />
    <path
       id="path9033"
       style="fill:#393536;fill-opacity:1;fill-rule:nonzero;stroke:none"
       d="m 480.083,593.20613 -1.23,7.14 c -0.0425,0.23 -0.28875,0.44 -0.515,0.44 l -2.48375,0 c -0.205,0 -0.3275,-0.1675 -0.3275,-0.35625 l 0,-0.0838 1.23125,-7.14 c 0.0613,-0.35625 0.1025,-0.65 0.1025,-0.9 0,-0.58625 -0.24625,-0.8375 -1.0675,-0.8375 -0.32875,0 -1.025,0.0625 -1.6625,0.335 0,0.46125 -0.0612,0.94125 -0.14375,1.4025 l -1.23,7.14 c -0.0425,0.23 -0.26875,0.44 -0.49375,0.44 l -2.4825,0 c -0.2075,0 -0.34875,-0.1675 -0.34875,-0.3775 l 0,-0.0625 1.23,-7.14 c 0.0613,-0.37625 0.12375,-0.71125 0.12375,-0.985 0,-0.48 -0.165,-0.7525 -0.8225,-0.7525 -0.5125,0 -1.21,0.2925 -1.8675,0.6275 l -1.41625,8.25 c -0.0413,0.23 -0.26625,0.44 -0.4925,0.44 l -2.48375,0 c -0.205,0 -0.34875,-0.1675 -0.34875,-0.3775 l 0,-0.0625 1.92875,-11.14 c 0.0412,-0.23 0.24625,-0.4175 0.47375,-0.4175 l 2.23625,0 c 0.205,0 0.34875,0.14625 0.34875,0.355 l 0,0.0625 -0.0825,0.4825 c 0.8225,-0.545 1.7675,-1.0675 2.895,-1.0675 1.1925,0 1.92875,0.37625 2.38125,0.94125 1.21,-0.71125 2.23875,-0.94125 3.6325,-0.94125 2.2775,0 3.04,1.52875 3.04,3.30875 0,0.4175 -0.0425,0.8575 -0.125,1.27625"
       inkscape:connector-curvature="0" />
    <path
       id="path9037"
       style="fill:#393536;fill-opacity:1;fill-rule:nonzero;stroke:none"
       d="m 488.57675,591.40563 c -1.455,0 -2.05125,0.88 -2.33875,2.575 l -0.36875,2.19875 c -0.0413,0.23 -0.0613,0.46125 -0.0613,0.69125 0,0.69 0.24375,1.2775 1.17,1.2775 0.6975,0 1.49625,-0.33625 2.175,-0.7325 l 1.00625,-5.885 c -0.37125,-0.0625 -1.00625,-0.125 -1.5825,-0.125 m 5.215,-1.63375 -1.80625,10.595 c -0.0425,0.23 -0.2475,0.41875 -0.47125,0.41875 l -2.095,0 c -0.205,0 -0.34875,-0.1675 -0.34875,-0.35625 l 0,-0.0625 0.0825,-0.60625 c -1.10875,0.87875 -2.095,1.21375 -3.18125,1.21375 -2.46375,0 -3.45,-1.92625 -3.45,-4.02 0,-0.3975 0.0412,-0.775 0.1025,-1.17375 0,0 0.26875,-1.56875 0.33,-1.9675 0.615,-3.6425 2.8325,-5.1925 6.055,-5.1925 1.39625,0 2.915,0.20875 4.2475,0.52375 0.34875,0.0838 0.555,0.14625 0.555,0.46125 0,0.0412 0,0.10375 -0.02,0.16625"
       inkscape:connector-curvature="0" />
    <path
       id="path9041"
       style="fill:#393536;fill-opacity:1;fill-rule:nonzero;stroke:none"
       d="m 503.49375,589.2065 -0.3075,1.69625 c -0.0412,0.23125 -0.24625,0.41875 -0.47375,0.41875 l -1.6825,0 -1.06625,6.09375 c -0.0412,0.25125 -0.0613,0.43875 -0.0613,0.58625 0,0.31375 0.14375,0.3975 0.57375,0.3975 l 1.00625,0 c 0.205,0 0.36875,0.0838 0.36875,0.2925 l 0,0.0638 -0.28625,1.6325 c -0.0412,0.20875 -0.185,0.3775 -0.45125,0.41875 -0.6375,0.105 -1.0675,0.1675 -1.6625,0.1675 -1.86875,0 -2.915,-0.69 -2.915,-2.5125 0,-0.31375 0.0412,-0.67 0.1025,-1.0675 l 1.0475,-6.0725 -1.6025,-0.27125 c -0.205,-0.0425 -0.34875,-0.16875 -0.34875,-0.3775 l 0,-0.0625 0.2275,-1.3825 c 0.0388,-0.23 0.285,-0.43875 0.5125,-0.43875 l 1.64,0 0.28875,-1.7175 c 0.0412,-0.23125 0.24625,-0.3775 0.4925,-0.41875 l 2.58625,-0.44 0.06,0 c 0.18625,0 0.30875,0.10375 0.30875,0.2925 l 0,0.0637 -0.38875,2.22 1.6825,0 c 0.205,0 0.34875,0.14625 0.34875,0.355 l 0,0.0625 z"
       inkscape:connector-curvature="0" />
    <path
       id="path9045"
       style="fill:#393536;fill-opacity:1;fill-rule:nonzero;stroke:none"
       d="m 510.59325,585.061 -0.33,1.9475 c -0.0388,0.23 -0.26625,0.41875 -0.49,0.41875 l -2.66875,0 c -0.205,0 -0.33,-0.14625 -0.33,-0.335 l 0,-0.0838 0.33,-1.9475 c 0.0413,-0.23 0.26625,-0.41875 0.49125,-0.41875 l 2.6675,0 c 0.2075,0 0.33,0.1475 0.33,0.335 l 0,0.0838 z m -0.77875,4.145 -1.93125,11.16125 c -0.0412,0.23 -0.26625,0.41875 -0.49125,0.41875 l -2.50375,0 c -0.20625,0 -0.33,-0.14625 -0.33,-0.335 l 0,-0.0838 1.93125,-11.16125 c 0.0387,-0.23 0.24625,-0.4175 0.47125,-0.4175 l 2.505,0 c 0.205,0 0.34875,0.14625 0.34875,0.35625 l 0,0.0612 z"
       inkscape:connector-curvature="0" />
    <path
       id="path9049"
       style="fill:#393536;fill-opacity:1;fill-rule:nonzero;stroke:none"
       d="m 520.97663,589.4165 -0.32751,1.86375 c -0.0412,0.20875 -0.24625,0.355 -0.45124,0.355 l -0.0413,0 c -0.7375,-0.0838 -1.31374,-0.14625 -2.48375,-0.14625 -1.005,0 -1.745,0.48125 -2.09375,2.42875 l -0.3075,1.75875 c -0.0612,0.39875 -0.1025,0.73375 -0.1025,1.00625 0,1.13 0.515,1.4225 1.37625,1.4225 1.17,0 1.74376,-0.0625 2.52501,-0.14625 l 0.0387,0 c 0.185,0 0.33,0.105 0.33,0.2925 l 0,0.0638 -0.33,1.86375 c -0.0612,0.31375 -0.18374,0.3975 -0.5125,0.48125 -0.59625,0.14625 -1.4975,0.31375 -2.73,0.31375 -2.4025,0 -4.0425,-1.465 -4.0425,-4.06125 0,-0.3975 0.0412,-0.79625 0.12125,-1.23625 l 0.3075,-1.75875 c 0.67875,-3.915 2.71,-5.2975 5.68625,-5.2975 1.23375,0 2.13625,0.16875 2.69125,0.315 0.24375,0.0625 0.36875,0.14625 0.36875,0.335 0,0.0412 -0.0225,0.10375 -0.0225,0.14625"
       inkscape:connector-curvature="0" />
    <path
       id="path9053"
       style="fill:#393536;fill-opacity:1;fill-rule:nonzero;stroke:none"
       d="m 531.93612,589.58375 -0.28624,1.69625 c -0.0413,0.23 -0.18501,0.3975 -0.4125,0.3975 l -0.06,0 c -0.57375,-0.0838 -2.31999,-0.27125 -3.36749,-0.27125 l -0.08,0 c -0.53499,0 -1.13124,0.02 -1.13124,0.7325 0,0.25125 0.16625,0.44 0.49374,0.64875 l 2.2775,1.48625 c 1.275,0.8375 1.62375,1.78 1.62375,2.59625 0,3.03625 -2.42375,4.10375 -5.07125,4.10375 -1.12749,0 -2.64625,-0.16625 -3.65125,-0.46 -0.20499,-0.0625 -0.30875,-0.18875 -0.30875,-0.3775 l 0,-0.105 0.30875,-1.695 c 0.0388,-0.25125 0.22375,-0.3975 0.47126,-0.3975 l 0.06,0 c 1.08875,0.14625 2.54625,0.2925 3.45001,0.2925 0.69624,0 1.35249,-0.0625 1.35249,-0.94125 0,-0.27375 -0.16374,-0.545 -0.615,-0.83875 l -2.4,-1.57 c -0.925,-0.6075 -1.335,-1.57125 -1.335,-2.49125 0,-2.93125 2.34125,-3.77 4.80125,-3.77 1.43875,0 2.56625,0.21 3.5725,0.4825 0.205,0.0625 0.3075,0.18875 0.3075,0.3775 l 0,0.10375 z"
       inkscape:connector-curvature="0" />
  </g>
</svg>
